<svg version="1.1" id="logo-n" xmlns="http://www.w3.org/2000/svg" xmlns:xlink="http://www.w3.org/1999/xlink" x="0px" y="0px"
               viewBox="0 0 50 50" enable-background="new 0 0 50 50" xml:space="preserve">
              <g>
                <path fill="#231F20" d="M39.4,9.2c-0.3-0.3-0.7-0.5-1.2-0.6l-0.2,0c-0.3,0-0.3,0-0.4,0c-0.2,0-0.4,0.1-0.7,0.2
                  c-0.8,0.3-1.4,1.4-1.3,2.1l0,0.8c0,2,0,7.3-0.1,9.5c0,1.8,0,3.1,0.1,4c0,1.6-0.1,3.2-0.1,4.9c0,0.5-0.1,1-0.1,1.5
                  c0,0.1-0.1,0.2-0.1,0.2C35.3,32,35.2,32,35.2,32L35,31.7l0-0.1l-1-1c-1.1-1-2.2-2-3.3-3c-0.6-0.5-1.2-1.1-1.9-1.6
                  c-4.3-4.2-8.8-8.5-13.4-13.1c-1-1.1-2-1.5-2.6-1.5c-0.3,0-0.7,0-1.2,0.2c-0.5,0.3-0.7,0.5-0.9,0.7c-0.2,0.3-0.4,0.6-0.6,1.1
                  C10,14,10,14.7,10,15.4l0,3.3c0,1.8,0,3.7-0.1,5.5l0-0.2l0,0.1c0,0.7,0,1.2,0,0.8c0,0.7,0,1.4,0,2.1l0,0.1c0,0.3,0,0.6,0,0.8
                  c0,0.3,0,0.6,0,1c0,0.1,0,0.3,0,0.6c0-0.1,0-0.1,0-0.1c0,1.8,0,3.6-0.1,5.4l0,2l0,1l0,0.5l0,0.2c0,0.2,0,0.7,0.2,1
                  c0.5,1.4,2.2,2.2,3.6,1.7c0.7-0.2,1.3-0.8,1.6-1.4c0.2-0.3,0.3-0.7,0.3-1.1l0-0.4l0-1.9c0-2.6,0-5.1-0.1-7.5c0-1.7-0.1-3.8-0.2-6.1
                  c0-0.6,0-1.2-0.1-1.7l-0.1-0.3l-0.1-0.8c0.1,0,0.2,0.1,0.4,0.2l0.3,0.3c0.2,0.2,0.4,0.3,0.5,0.5c4.2,3.9,8.1,7.5,12.3,11.4
                  c2.5,2.3,3.7,4.1,5.3,5.3c1,0.8,3.3,2.5,3.8,2.8c0.6,0.6,1.6,0.2,1.8-0.5c0,0,0,0,0,0c0.3-0.9,0.6-6,0.7-11.5c0-4.2-0.1-9.9,0-14
                  c0-1,0.1-2.1,0.1-3.1C40.2,11.2,40.2,9.8,39.4,9.2z"/>
                <path fill="#231F20" d="M35.2,30.5c0-0.5,0-0.3,0-0.4C35.2,31,35.3,30.5,35.2,30.5z"/>
                <polygon fill="#231F20" points="30.2,27 29.2,26.2 30.1,26.9   "/>
                <path fill="#231F20" d="M27.3,24.3l0.2,0.2l0.5,0.4c-1.3-1.2-3-2.8-3.9-3.7C24.6,21.8,26.3,23.3,27.3,24.3z"/>
                <path fill="#231F20" d="M21.8,18.7c-0.1-0.1-0.1-0.1-0.1-0.1c-0.1-0.1-0.3-0.3-0.6-0.6C21.3,18.2,20.4,17.4,21.8,18.7z"/>
                <path fill="#231F20" d="M21.7,18.6C22.3,19.2,21.3,18.2,21.7,18.6L21.7,18.6z"/>
                <path fill="#231F20" d="M19.6,16.6c-0.2-0.2-0.9-0.9-0.6-0.6c-0.9-0.8-0.7-0.6-0.2-0.1L19.6,16.6z"/>
                <path fill="#231F20" d="M18,15.1l0.4,0.4C18.3,15.4,18.2,15.3,18,15.1z"/>
                <path fill="#231F20" d="M18.8,15.9c-0.1-0.1,0.1,0.1,0.5,0.5l-0.9-0.9C18.5,15.6,18.5,15.7,18.8,15.9z"/>
                <path fill="#231F20" d="M20,17.1c1.6,1.5,1.4,1.2-0.2-0.3C20.3,17.3,20.9,17.9,20,17.1z"/>
                <path fill="#231F20" d="M24.9,22.1c-0.3-0.2-1.2-1.2-1.1-1.1l0.6,0.6L24.9,22.1z"/>
                <path fill="#231F20" d="M14.5,11.7C14.5,11.7,14.6,11.7,14.5,11.7C14.6,11.8,14.5,11.7,14.5,11.7z"/>
                <path fill="#231F20" d="M13.3,11.1c-0.1,0,0.4,0.2,0.5,0.2c0,0,0.6,0.3,0.8,0.4C14.1,11.4,13.4,11.1,13.3,11.1z"/>
                <path fill="#231F20" d="M13.8,11.3c0,0-0.3-0.1-0.7-0.2c-0.1,0-0.2,0-0.3,0c-0.1,0-0.1,0-0.2,0c-0.1,0-0.2,0-0.2,0
                  c0.6,0,1,0.1,1.2,0.2C13.8,11.3,13.8,11.4,13.8,11.3z"/>
                <polygon fill="#231F20" points="19.3,16.4 17.5,14.7 17.8,15   "/>
                <path fill="#231F20" d="M9.7,14.8l0-0.6c0,0,0-0.3,0-0.6c0,0.1,0,0.3,0,0.5C9.6,14.5,9.7,14.8,9.7,14.8z"/>
                <path fill="#231F20" d="M9.7,13.6c0-0.1,0-0.2,0-0.2C9.7,13.4,9.7,13.5,9.7,13.6z"/>
                <path fill="#231F20" d="M9.8,13.2c0,0,0.2-0.5,0.3-0.5c0.1-0.1,0.2-0.3,0.3-0.5C10.3,12.4,10.1,12.5,9.8,13.2z"/>
                <path fill="#231F20" d="M9.8,13.6C9.8,13.7,9.8,13.7,9.8,13.6C9.8,13.7,9.8,13.7,9.8,13.6z"/>
                <path fill="#231F20" d="M9.8,13.7c0,0.1,0,0.1,0,0.2C9.8,13.8,9.8,13.8,9.8,13.7z"/>
                <path fill="#231F20" d="M9.9,13.1C9.9,13.2,9.9,13.2,9.9,13.1C9.9,13.2,9.9,13.2,9.9,13.1z"/>
                <path fill="#231F20" d="M9.9,13.2c0,0.1-0.1,0.2-0.1,0.3C9.8,13.4,9.9,13.3,9.9,13.2z"/>
                <path fill="#231F20" d="M10.1,12.7L10.1,12.7C10,12.9,10,13,9.9,13.1C10,13,10,12.9,10.1,12.7z"/>
                <path fill="#231F20" d="M9.8,13.5c0,0.1,0,0.1,0,0.2C9.8,13.6,9.8,13.5,9.8,13.5z"/>
                <path fill="#231F20" d="M14.8,12.2c0.4,0.3-0.2-0.3,0.7,0.5C14.9,12.1,13.5,11.3,14.8,12.2z"/>
                <path fill="#231F20" d="M12.3,11.2c0,0-0.3,0,0.1-0.1c0,0-0.4,0-0.8,0.2c-0.4,0.2-0.7,0.4-0.7,0.4s0.3-0.2,0.6-0.4
                  C11.9,11.2,12.3,11.2,12.3,11.2z"/>
                <path fill="#231F20" d="M11,11.7c0,0-0.4,0.4-0.4,0.4l-0.1,0.1C10.5,12.2,10.9,11.7,11,11.7z"/>
                <path fill="#231F20" d="M13.5,11.6C13.5,11.5,13.5,11.5,13.5,11.6C13.3,11.5,13.2,11.5,13.5,11.6z"/>
                <path fill="#231F20" d="M13.6,11.5l-0.2-0.1c-0.5-0.2-1.1-0.2-1.6-0.1c-0.3,0.1-0.5,0.2-0.6,0.2c0.3-0.1,0.6-0.3,1.2-0.3
                  c0.1,0,0.2,0,0.3,0c0.1,0,0.3,0,0.6,0.1c0.5,0.2,0,0,0,0C13.8,11.6,14.7,12.1,13.6,11.5z"/>
                <path fill="#231F20" d="M11.3,11.6C11.2,11.6,11.2,11.6,11.3,11.6C11.2,11.7,11.2,11.6,11.3,11.6z"/>
                <path fill="#231F20" d="M9.9,16.1l0,2.2l0-1.1l0,0.1C9.9,16,9.9,16.3,9.9,16.1z"/>
                <path fill="#231F20" d="M15.8,26.4c0-0.8,0-1.4,0-2C15.7,25.3,15.7,26.1,15.8,26.4z"/>
                <path fill="#231F20" d="M15.7,22.5c0,0.6,0,1.2,0.1,1.9c0-0.7,0-1.5-0.1-2.3C15.7,22.2,15.7,22.4,15.7,22.5z"/>
                <path fill="#231F20" d="M35.3,21.6c0-0.1,0-0.2,0-0.3C35.3,21.4,35.3,21.5,35.3,21.6z"/>
                <path fill="#231F20" d="M35.3,21.6c0,0.3,0,0.6,0,0.8C35.3,22.1,35.3,21.8,35.3,21.6z"/>
                <path fill="#231F20" d="M11.7,41.4C11.1,41.2,11.6,41.4,11.7,41.4L11.7,41.4z"/>
                <path fill="#231F20" d="M9.9,39.3c0,0-0.1-0.1-0.1-0.2C9.8,39.2,9.9,39.3,9.9,39.3z"/>
                <path fill="#231F20" d="M11.6,41.4c-0.1,0-0.2-0.1-0.3-0.2C11.4,41.3,11.5,41.3,11.6,41.4z"/>
                <path fill="#231F20" d="M11.1,41.1c-0.1-0.1-0.2-0.1-0.3-0.2C11,41,11.1,41.1,11.1,41.1z"/>
                <path fill="#231F20" d="M11.2,41.2C11.2,41.2,11.2,41.2,11.2,41.2C11.2,41.2,11.2,41.2,11.2,41.2z"/>
                <path fill="#231F20" d="M10.9,41c-0.2-0.1-0.3-0.2-0.5-0.4C10.4,40.6,10.5,40.7,10.9,41z"/>
                <path fill="#231F20" d="M11.7,41.4c0.2,0.1,0.4,0.1,0.9,0.2c-0.4,0-0.7-0.1-1-0.2C11.7,41.4,11.7,41.4,11.7,41.4z"/>
                <path fill="#231F20" d="M15.7,39.5c0-0.1,0.2-0.6,0.2-1.2c0,0.1,0,0.4-0.2,1.1C15.6,39.6,15.6,39.6,15.7,39.5z"/>
                <path fill="#231F20" d="M9.7,36.7l0-1L9.6,32C9.6,33.7,9.6,35.3,9.7,36.7z"/>
                <path fill="#231F20" d="M9.7,35.7l0,1.2c0-0.6,0-1.2,0-1.6L9.7,35.7z"/>
                <path fill="#231F20" d="M15.9,37.3C15.9,36.6,15.9,36.3,15.9,37.3C15.9,37.3,15.9,37.3,15.9,37.3z"/>
                <path fill="#231F20" d="M9.7,34.6c0-0.1,0-0.9,0-1.8l0,0.2C9.7,32.7,9.7,33.7,9.7,34.6z"/>
                <path fill="#231F20" d="M9.7,31.8c0-0.1,0,0.3,0,0.8C9.7,32.3,9.7,32.1,9.7,31.8z"/>
                <path fill="#231F20" d="M13.3,41.5c-0.3,0.1,0.5-0.1,1-0.4c0.2-0.1,0.4-0.3,0.3-0.3c0,0-0.2,0.2-0.8,0.4
                  C13.4,41.5,13.6,41.5,13.3,41.5z"/>
                <polygon fill="#231F20" points="9.9,33.9 9.8,34.2 9.8,34.7  "/>
                <path fill="#231F20" d="M11,40.7c0,0-0.3-0.2-0.5-0.5c-0.2-0.3-0.4-0.6-0.4-0.6c0,0-0.1-0.1-0.2-0.4c0.1,0.4,0.4,0.9,0.6,1.1
                  C10.8,40.6,11,40.7,11,40.7z"/>
                <path fill="#231F20" d="M9.9,39.2c-0.1-0.5-0.1-0.9-0.1-1.2C9.8,38.3,9.8,38.8,9.9,39.2z"/>
                <path fill="#231F20" d="M15.5,28.5c0,0.4,0,1,0.1,0.7l0-1.6C15.5,27.5,15.5,28,15.5,28.5z"/>
                <polygon fill="#231F20" points="35.3,26.8 35.3,28 35.3,27.2   "/>
                <path fill="#231F20" d="M35.3,30.1c0-0.3,0-0.8,0-1l-0.1,0.3L35.3,30.1z"/></g>
            </svg>